<svg xmlns="http://www.w3.org/2000/svg" width="480" height="480" viewBox="0 0 480 480">
  <g id="favicon" transform="translate(-2108 -1345)">
    <circle id="Ellipse_86" data-name="Ellipse 86" cx="240" cy="240" r="240" transform="translate(2108 1345)" fill="#004f91"/>
    <circle id="Ellipse_87" data-name="Ellipse 87" cx="205" cy="205" r="205" transform="translate(2143 1380)" fill="#fff"/>
    <path id="Pfad_134" data-name="Pfad 134" d="M624.987,454.5c-.478-15.519-12.415-27.7-27.695-27.7H447.118c-15.28,0-27.218,12.177-27.218,27.7l.239,27.934h84.04l-.478-20.294c-.476-7.879,6.208-13.609,13.37-13.609h10.5a14.3,14.3,0,0,1,13.848,13.609l.239,20.771c.478,7.879-6.685,10.983-13.37,13.609l-79.982,29.844c-14.086,5.014-26.979,12.177-27.218,26.979l.716,52.525H626.182l-.239-21.726h-126.3V576.5c-.478-7.878,6.207-10.027,13.131-12.653l85.473-31.993c14.325-5.491,27.7-14.563,27.218-29.844Z" transform="translate(1825.1 1068.2)" fill="#004f91"/>
  </g>
</svg>
